
<svg width="1024px" height="573px" viewBox="0 0 1024 573" version="1.1" xmlns="http://www.w3.org/2000/svg" xmlns:xlink="http://www.w3.org/1999/xlink">
    <defs>
        <radialGradient cx="48.3397178%" cy="49.4186213%" fx="48.3397178%" fy="49.4186213%" r="22.8145736%" gradientTransform="translate(0.483397,0.494186),scale(1.000000,0.519770),rotate(-20.151456),translate(-0.483397,-0.494186)" id="radialGradient-1">
            <stop stop-color="#000000" offset="0%"></stop>
            <stop stop-color="#000000" stop-opacity="0" offset="100%"></stop>
        </radialGradient>
        <radialGradient cx="48.4137097%" cy="49.4045082%" fx="48.4137097%" fy="49.4045082%" r="22.7356195%" gradientTransform="translate(0.484137,0.494045),scale(1.000000,0.519796),rotate(-20.150512),translate(-0.484137,-0.494045)" id="radialGradient-2">
            <stop stop-color="#FFFFFF" offset="0%"></stop>
            <stop stop-color="#818181" stop-opacity="0" offset="100%"></stop>
        </radialGradient>
    </defs>
    <g id="Page-1" stroke="none" stroke-width="1" fill="none" fill-rule="evenodd">
        <g id="Desktop">
            <polygon id="Rectangle" fill="#364F6B" fill-rule="nonzero" points="5.70888822e-14 0 1024 0 1024 573 5.60280988e-14 573"></polygon>
            <g id="snapchat-light" opacity="0.6" transform="translate(791.000000, 65.000000) rotate(29.000000) translate(-791.000000, -65.000000) translate(783.000000, 57.000000)" fill="#EDEDED">
                <path d="M0,11.9304139 C0.00958326041,12.2863039 0.0125391362,12.6435308 0.0724967427,12.9965294 C0.136032515,13.3699854 0.226855687,13.7341454 0.400132237,14.0730912 C0.63439317,14.5318588 0.956116913,14.9192743 1.36222313,15.2357419 C1.65379694,15.4629805 1.97231589,15.6433661 2.3249052,15.7571563 C2.8390409,15.9228673 3.36944947,15.9863847 3.90760555,15.9894937 C4.24336192,15.9916079 4.57890049,16.0000022 4.91478132,15.9986032 C7.35400113,15.9883434 9.79328316,16.0162002 12.2325652,15.9835555 C12.5562491,15.9791718 12.8746436,15.9397182 13.1923225,15.8816728 C13.8012018,15.7703075 14.3393268,15.510704 14.7997277,15.1002817 C15.336297,14.6220827 15.698314,14.03684 15.8617272,13.3305008 C15.9686677,12.8688107 15.9954262,12.4004051 16,11.9303518 L16,11.8365836 C16,11.800208 15.9861541,3.84974919 15.9848784,3.74466417 C15.9813002,3.45599128 15.9600179,3.1694947 15.9058476,2.88545425 C15.8399782,2.53932659 15.7469148,2.20205965 15.5810435,1.88891873 C15.4059001,1.55808747 15.1865119,1.26061603 14.9151625,1.00067052 C14.4995041,0.602404525 14.0198433,0.320758025 13.4614317,0.171773586 C12.9570659,0.0372461097 12.4425257,0.00746165803 11.9242207,0.00792801166 C11.9233806,0.00780365069 11.9214204,0.00254939983 11.9212959,0 L4.07621492,0 C4.07605935,0.00267376079 4.07596601,0.00534752159 4.07577932,0.00792801166 C3.78162301,0.0133066235 3.4870311,0.0110992163 3.19436828,0.0473504382 C2.87376466,0.087177038 2.55624137,0.147150114 2.25278183,0.259137165 C1.77480116,0.435791919 1.35951617,0.710940559 1.00477996,1.07827177 C0.6028742,1.49444574 0.319576843,1.97575378 0.169262781,2.53621756 C0.0351593645,3.03627301 0.00597398051,3.54627734 0.00525834743,4.05988813 L0,11.9304139 Z M8.07295055,13.5172414 C8.04011303,13.5172414 8.0087821,13.5160249 7.98495337,13.5148709 C7.96604412,13.516524 7.94651994,13.5172414 7.92696501,13.5172414 C7.23710031,13.5172414 6.77583766,13.186399 6.36878151,12.8942646 C6.07702565,12.6851917 5.80187304,12.4878155 5.47952418,12.4334184 C5.32120919,12.4067814 5.16372437,12.3932757 5.01155873,12.3932757 C4.73739001,12.3932757 4.52071771,12.4364128 4.36252571,12.4677909 C4.26518151,12.4870357 4.1812429,12.5035981 4.11636727,12.5035981 C4.04841697,12.5035981 3.96586196,12.4883145 3.93145635,12.3691339 C3.90418399,12.2751244 3.88462906,12.1840468 3.86575056,12.0963379 C3.81852356,11.8771591 3.78427169,11.7433812 3.703377,11.7306865 C2.83813288,11.5952554 2.32690676,11.3957581 2.22507355,11.1541531 C2.2147253,11.1300194 2.20864712,11.1042257 2.20711745,11.0779536 C2.20314312,11.0060709 2.25322014,10.9427081 2.3232479,10.931013 C3.01037614,10.8162304 3.62134469,10.4478029 4.1392736,9.83561826 C4.54048786,9.36167187 4.737513,8.90884174 4.75866676,8.85884265 C4.75960801,8.85654339 4.76064406,8.85428525 4.76177218,8.85207422 C4.86160686,8.64658828 4.88146925,8.46901823 4.82099041,8.3244482 C4.70950271,8.05773444 4.34026506,7.93889694 4.09598218,7.86026457 C4.03522661,7.84077023 3.97776095,7.82230519 3.93197905,7.80387134 C3.71542973,7.71709813 3.35929019,7.53375776 3.40673242,7.28070563 C3.44129176,7.09618001 3.68188503,6.96767332 3.87632744,6.96767332 C3.93031872,6.96767332 3.97816066,6.97728013 4.01843889,6.99646256 C4.23815513,7.10088984 4.43582594,7.15382087 4.60582469,7.15382087 C4.81723931,7.15382087 4.91934924,7.07216298 4.94403888,7.04895692 C4.93763609,6.93183277 4.930677,6.81474061 4.92316184,6.6976845 C4.87353659,5.89685701 4.8116434,4.90024395 5.06293654,4.32873228 C5.81506339,2.61800256 7.41011224,2.48497318 7.88090639,2.48497318 C7.95861435,2.48431143 8.03632165,2.48357325 8.1140282,2.48275862 C8.58611371,2.48275862 10.1844832,2.61594395 10.9370713,4.32770298 C11.1883644,4.89958894 11.1264097,5.89704415 11.0766307,6.6987138 L11.074294,6.73707866 C11.0674682,6.84593506 11.0611651,6.94895875 11.0558459,7.04883215 C11.0790905,7.07054105 11.1725298,7.14539932 11.362637,7.15297872 C11.524703,7.14667814 11.7109361,7.09399664 11.9160169,6.99658732 C11.9794166,6.96639449 12.0496115,6.96012511 12.0972689,6.96012511 C12.1693085,6.96012511 12.2426088,6.97434818 12.3037025,7.00020547 L12.3069617,7.0014843 C12.4809883,7.06414691 12.5949665,7.18937855 12.5974262,7.32094195 C12.5996092,7.44358474 12.5097672,7.62689392 12.067875,7.80393372 C12.0226158,7.82211804 11.9648734,7.84070785 11.9038719,7.86032695 C11.6593738,7.93905289 11.2904436,8.05782801 11.1789559,8.32438582 C11.1183848,8.46895585 11.1383087,8.64646351 11.2381741,8.85188707 C11.239281,8.85413282 11.2402342,8.85640976 11.2413103,8.85878027 C11.272057,8.93189184 12.016282,10.6533513 13.6767292,10.9308571 C13.7467312,10.9426041 13.7967908,11.0059281 13.7928904,11.0777976 C13.7912616,11.1043229 13.7850375,11.1303495 13.7745038,11.1546833 C13.6733778,11.3949471 13.1621824,11.5941637 12.2966923,11.7297819 C12.2154594,11.7425078 12.1812383,11.8756932 12.1344417,12.0937179 C12.1150713,12.1837661 12.0953626,12.2720365 12.0684592,12.3647984 C12.0432776,12.4520394 11.9872571,12.4946775 11.8972921,12.4946775 L11.8837328,12.4946775 C11.8251602,12.4946775 11.7421748,12.4838854 11.6375128,12.4631122 C11.4545697,12.4269931 11.2493967,12.3933693 10.9884798,12.3933693 C10.8363449,12.3933693 10.6788909,12.4069061 10.5203914,12.433512 C10.1983807,12.487909 9.92325887,12.6849734 9.63202571,12.893828 C9.22417015,13.1863678 8.76275376,13.5172414 8.07295055,13.5172414" id="Combined-Shape"></path>
                <path d="M8.11671619,2.7645142 C8.57141311,2.7645142 10.1371685,2.88556498 10.8750326,4.52500337 C11.117999,5.06485304 11.055716,6.04276749 11.0057639,6.82833497 C10.9979628,6.95300199 10.9902246,7.07383454 10.9839334,7.18921155 L10.9812911,7.23881026 L11.0146974,7.2757521 C11.028192,7.29059119 11.154488,7.4213996 11.4353903,7.43215482 L11.43992,7.43240421 L11.4446384,7.43231069 C11.6303548,7.42529642 11.8395374,7.36812229 12.0667129,7.26265879 C12.1001821,7.24713387 12.1447238,7.23955845 12.1918449,7.23955845 C12.2455404,7.23955845 12.3026016,7.24956548 12.3496598,7.26920545 L12.3567689,7.27201116 C12.4758929,7.31337978 12.5601007,7.39137851 12.5613904,7.46195769 C12.5620824,7.50186111 12.531979,7.64560696 12.1097132,7.8109256 C12.0684429,7.82707401 12.0141184,7.84425119 11.9511434,7.86392233 C11.6763435,7.95040053 11.2611868,8.0808972 11.1214591,8.40720121 C11.0427876,8.59100635 11.064335,8.80791887 11.1854407,9.05182854 C11.2352671,9.16708085 12.0196546,10.918093 13.784684,11.2063328 C13.7840817,11.2160505 13.7816379,11.2255688 13.7774805,11.2343899 C13.7475658,11.3042209 13.5574141,11.5454808 12.3741641,11.7264179 C12.1890139,11.7545373 12.1436543,11.960227 12.0910598,12.1993358 C12.0720604,12.2849411 12.0527464,12.3713569 12.0261975,12.4606097 C12.0180818,12.4875757 12.0165719,12.4891032 11.9874122,12.4891032 L11.9735086,12.4891032 C11.92104,12.4891032 11.8413933,12.4783168 11.7490699,12.4603603 C11.5809374,12.4279076 11.3512454,12.3880977 11.0576034,12.3880977 C10.8937175,12.3880977 10.724893,12.4022197 10.5555022,12.4302457 C10.1934119,12.4899138 9.89895197,12.6963204 9.58709688,12.9147917 C9.16829129,13.2080818 8.73542485,13.5115661 8.07497404,13.5115661 C8.04612886,13.5115661 8.01797571,13.5105997 7.98975965,13.5091968 L7.98233603,13.5088851 L7.97488095,13.5094462 C7.95868109,13.5108491 7.94235541,13.5115661 7.92568372,13.5115661 C7.26532727,13.5115661 6.8322721,13.2081754 6.41365524,12.9147917 C6.10173724,12.6963204 5.80712006,12.4899138 5.44509261,12.4302457 C5.27585916,12.4023133 5.10687737,12.3880977 4.94308581,12.3880977 C4.64950668,12.3880977 4.41953164,12.4326149 4.25174518,12.46513 C4.15942173,12.4830242 4.07949195,12.4983621 4.02718057,12.4983621 C3.98433746,12.4983621 3.9835196,12.4958681 3.97446027,12.4651923 C3.94791138,12.3758772 3.92850301,12.2874039 3.90959793,12.2019233 C3.85687762,11.9625651 3.81148657,11.7557531 3.62643074,11.7276025 C2.44327507,11.5465095 2.25309191,11.3048444 2.22308285,11.2352005 C2.21900316,11.2261513 2.21654433,11.2164673 2.21581651,11.2065822 C3.98081438,10.9185918 4.76504468,9.1675173 4.81502831,9.05182854 C4.93635422,8.80810592 4.95787015,8.59122457 4.87894697,8.40720121 C4.73921928,8.08108424 4.3241255,7.95040053 4.04951435,7.8640782 C3.9863821,7.84428236 3.93202608,7.82707401 3.89072431,7.8109256 C3.53413875,7.67129479 3.42445157,7.53063522 3.4407458,7.445404 C3.45965087,7.34711065 3.63158953,7.24716504 3.7816348,7.24716504 C3.81535566,7.24716504 3.84492433,7.25255824 3.86678627,7.26268997 C4.11047614,7.37588476 4.33293319,7.4332771 4.52805495,7.4332771 C4.8347827,7.4332771 4.97130187,7.29183817 4.98596038,7.27568975 L5.01920941,7.23884144 L5.01653565,7.18949212 C5.01033881,7.07417746 5.00269499,6.95337608 4.99464225,6.82895846 C4.94484735,6.04320393 4.88256441,5.06594415 5.12543642,4.5260633 C5.86056386,2.8926416 7.41867542,2.76672759 7.87862549,2.76672759 C7.88994967,2.76672759 8.08991565,2.76470125 8.08991565,2.76470125 C8.09809422,2.7646389 8.10718501,2.7645142 8.11671619,2.7645142 M8.11671619,2.48275862 L8.11618144,2.48275862 C8.10570658,2.48275862 8.09586084,2.48275862 8.08648694,2.48288332 L7.87783909,2.48494084 C7.60838674,2.48494084 7.06926183,2.52266204 6.49015631,2.77598643 C6.15905013,2.92072987 5.86122443,3.11644369 5.60498361,3.35770353 C5.29948264,3.64516405 5.05060253,3.99958751 4.86538942,4.41127861 C4.59414407,5.0140697 4.65853456,6.02939361 4.71024828,6.8453251 L4.71043701,6.84660325 C4.71597327,6.93398552 4.72179264,7.02523342 4.72710871,7.11414324 C4.68731683,7.13225565 4.62280051,7.15136565 4.52770893,7.15136565 C4.3747068,7.15136565 4.19276512,7.10288922 3.98707413,7.0073704 C3.92655273,6.97943801 3.85747529,6.96531594 3.78125733,6.96531594 C3.658799,6.96531594 3.52970345,7.00104197 3.41771998,7.0662903 C3.27682842,7.14827937 3.18579467,7.26415517 3.16107023,7.39262549 C3.144776,7.47760731 3.14556241,7.64557578 3.33382675,7.81591352 C3.43738,7.90968657 3.58950136,7.99616477 3.78584991,8.07307238 C3.83737489,8.09317997 3.89852541,8.11238349 3.96329338,8.13274047 C4.18804671,8.20353787 4.52821223,8.31049775 4.61691823,8.51740324 C4.6618689,8.6223056 4.64252344,8.76034651 4.55957389,8.92719269 C4.55740342,8.93174418 4.55523296,8.93620214 4.55325123,8.94087832 C4.5325217,8.98885595 4.33913003,9.42299273 3.94243803,9.88085334 C3.71702411,10.1412232 3.46874166,10.3588215 3.20488848,10.5277876 C2.88284164,10.7340696 2.53437173,10.8689307 2.16926159,10.9285364 C2.02590261,10.9518723 1.92335988,11.0785709 1.93148545,11.2223254 C1.93393902,11.2637875 1.9437533,11.305125 1.96077102,11.3451219 L1.96117994,11.345839 C2.01915341,11.4802324 2.15356503,11.5943936 2.37209007,11.6950874 C2.63912031,11.8180087 3.03848608,11.9214147 3.55898901,12.0023126 C3.58528626,12.0518802 3.61259009,12.1764537 3.63149517,12.2617472 C3.65128101,12.3524028 3.67191616,12.4456147 3.70132755,12.5446251 C3.73306669,12.6518967 3.81538712,12.7800865 4.02686601,12.7800865 C4.10701598,12.7800865 4.19918215,12.7621923 4.30591246,12.7416794 C4.46221748,12.7112842 4.6759612,12.6698221 4.9427398,12.6698221 C5.09064605,12.6698221 5.24393129,12.6827283 5.39822312,12.7081356 C5.69563989,12.7572043 5.95203799,12.9367074 6.24869982,13.1445793 C6.68291886,13.4487805 7.17441934,13.7931034 7.92536916,13.7931034 C7.94584703,13.7931034 7.96638782,13.7924488 7.98667696,13.7910459 C8.01149577,13.7921994 8.04225977,13.7931034 8.07472239,13.7931034 C8.8258924,13.7931034 9.31726705,13.4486558 9.75101426,13.144704 L9.75170629,13.1440805 C10.048431,12.936458 10.304546,12.7572043 10.6018684,12.7081356 C10.7560973,12.6827595 10.9093511,12.6698221 11.0573203,12.6698221 C11.3121771,12.6698221 11.5139675,12.7020254 11.6941476,12.7368474 C11.8117303,12.7597918 11.90311,12.7708276 11.9732255,12.7708276 L11.9800829,12.7709523 L11.987192,12.7709523 C12.1418613,12.7709523 12.255512,12.6868122 12.2988898,12.5395748 C12.3277035,12.4426531 12.3482758,12.3516234 12.3685649,12.2594403 C12.3862432,12.1795088 12.4144907,12.0513814 12.440788,12.0012839 C12.9616369,11.92023 13.3608454,11.8170423 13.6279071,11.6941522 C13.8459289,11.593926 13.9801832,11.4798895 14.0385027,11.3460572 C14.0559922,11.3059355 14.0662154,11.2643487 14.0685117,11.2220136 C14.0766647,11.0782397 13.9740913,10.9515199 13.8307041,10.9282247 C12.2080448,10.6631787 11.4770381,9.01080284 11.4468089,8.94059775 C11.4448322,8.93596803 11.4426812,8.93141335 11.4403604,8.9269433 C11.3574108,8.76003476 11.3382541,8.62214973 11.3832362,8.51706032 C11.4717535,8.31034188 11.8116988,8.203382 12.0366094,8.13261577 C12.1017234,8.11228997 12.1630941,8.09296175 12.2142102,8.07294769 C12.4356292,7.98628244 12.5938845,7.89226 12.698287,7.78548716 C12.8229787,7.65820148 12.8472628,7.53624664 12.8457529,7.45643979 C12.8419467,7.26334463 12.6930024,7.09175991 12.4560756,7.0077445 C12.3760515,6.97494887 12.2847975,6.957647 12.1918764,6.957647 C12.1286183,6.957647 12.0349423,6.96625117 11.9462677,7.00727688 C11.7564306,7.09531381 11.5863793,7.14344731 11.4403918,7.15030571 C11.3627583,7.1464089 11.308308,7.12973051 11.2730457,7.11380032 C11.277481,7.03848261 11.2823882,6.96110737 11.2874526,6.88042764 L11.2895602,6.84588624 C11.341557,6.02942478 11.4061677,5.01332151 11.1347965,4.41009398 C10.948797,3.99693767 10.6990361,3.64161015 10.3923084,3.35352614 C10.1350609,3.11211043 9.83622864,2.91642778 9.50392714,2.77177787 C8.92563947,2.52032395 8.38654602,2.48275862 8.11671619,2.48275862" id="Shape" fill-rule="nonzero"></path>
            </g>
            <g id="slack-light" opacity="0.6" transform="translate(686.000000, 472.000000) rotate(19.000000) translate(-686.000000, -472.000000) translate(678.000000, 464.000000)" fill="#EDEDED" fill-rule="nonzero">
                <path d="M12.04736,8.9952 L11.05216,9.32864 L11.39776,10.35904 C11.53728,10.77504 11.31136,11.22624 10.89472,11.3664 C10.79872,11.3952 10.71232,11.40928 10.61632,11.40672 C10.28928,11.39712 9.99168,11.1904 9.87712,10.86336 L9.53152,9.83488 L7.47712,10.5216 L7.82208,11.55072 C7.95712,11.968 7.73568,12.41984 7.31392,12.55872 C7.21792,12.58944 7.13152,12.6016 7.03552,12.59968 C6.70912,12.59008 6.41088,12.38208 6.29568,12.05568 L5.95072,11.01952 L4.95168,11.35488 C4.85568,11.38368 4.76928,11.39392 4.67328,11.39392 C4.34624,11.38368 4.04864,11.17312 3.93408,10.84672 C3.79008,10.42432 4.02048,9.97376 4.43328,9.83872 L5.43168,9.50272 L4.8,7.5264 L3.80736,7.8624 C3.71712,7.89312 3.62496,7.90464 3.53344,7.90336 C3.21664,7.89312 2.90944,7.68704 2.8032,7.36064 C2.66944,6.94464 2.8896,6.49408 3.31264,6.35328 L4.31104,6.02048 L3.96544,4.99328 C3.83104,4.57472 4.05248,4.12352 4.47488,3.98528 C4.89664,3.84448 5.3472,4.07232 5.48224,4.4864 L5.8272,5.51552 L7.872,4.82816 L7.5264,3.80096 C7.39264,3.38816 7.6128,2.93696 8.03136,2.7936 C8.44864,2.65856 8.90112,2.88 9.03936,3.29984 L9.38496,4.33728 L10.38016,4.01088 C10.7968,3.87072 11.248,4.09728 11.38816,4.50944 C11.52768,4.928 11.30176,5.3792 10.8864,5.51744 L9.88992,5.8528 L10.55232,7.82784 L11.54496,7.4976 C11.96224,7.36256 12.41408,7.584 12.55296,8.0064 C12.69376,8.4288 12.46656,8.88 12.0544,9.01376 L12.04736,8.9952 Z M14.7168,5.56736 C13.1328,0.29184 10.84544,-0.94144 5.56736,0.6432 C0.29184,2.22656 -0.94144,4.51264 0.6432,9.79264 C2.2272,15.06944 4.51264,16.30144 9.79264,14.7168 C15.06944,13.1328 16.30144,10.84736 14.7168,5.56736 Z M6.32256,7.0368 L6.98496,9.0112 L9.03616,8.32384 L8.37376,6.35648 L6.32256,7.04768 L6.32256,7.0368 Z" id="Shape"></path>
            </g>
            <g id="netflix-light" opacity="0.6" transform="translate(68.500000, 459.000000) rotate(-21.000000) translate(-68.500000, -459.000000) translate(64.000000, 451.000000)">
                <path d="M5.28210792,2.66453526e-14 L5.27628473,3.51099825 L5.27043079,7.02199637 L4.99788049,6.20694322 C4.99778584,6.20666234 4.99744983,6.20562409 4.99735676,6.20534321 L4.64516129,14.0217552 C4.99143655,15.0581504 5.17696277,15.611415 5.17904665,15.6136233 C5.1817732,15.616514 5.37910922,15.6291307 5.61757336,15.6416733 C6.34006611,15.6796707 7.23537784,15.7610922 7.91456204,15.8505307 C8.07181914,15.8712372 8.20715623,15.8818413 8.21530386,15.8741072 C8.22345165,15.866373 8.22788837,12.291529 8.22516324,7.93001657 L8.22020279,2.85460873e-14 L6.75115535,2.85460873e-14 L5.28210792,2.85460873e-14 Z" id="path4155" fill="#D6D6D6"></path>
                <path d="M4.4408921e-16,8.8817842e-15 L4.4408921e-16,7.93804957 C4.4408921e-16,12.3039825 0.00403082953,15.8804028 0.00896588241,15.8856342 C0.0139006198,15.8908639 0.269012124,15.8653376 0.57588016,15.8289135 C0.882747882,15.7924877 1.30686065,15.7471937 1.51834433,15.7282727 C1.84269375,15.6992518 2.81110528,15.6332608 2.92324428,15.6325302 C2.95586478,15.6323128 2.95795702,15.4539446 2.96268179,12.2703052 L2.967673,8.9083089 L3.20198737,9.61093303 C3.23819905,9.71953038 3.24955769,9.75344244 3.28483691,9.85923701 L3.63693994,2.04475161 C3.56233567,1.82119829 3.60144428,1.9385519 3.5159469,1.68235336 C3.22825922,0.82027785 2.98413596,0.0890807116 2.97343467,0.0574716965 L2.95396231,8.8817842e-15 L1.47699662,8.8817842e-15 L4.4408921e-16,8.8817842e-15 Z" id="path4157" fill="#D6D6D6"></path>
                <path d="M2.66453526e-15,1.24344979e-14 L7.88750301e-07,4.45585254 L2.96169664,12.7823257 C2.96200583,12.591517 2.96235919,12.4884161 2.96268258,12.2703052 L2.96767379,8.9083089 L3.20198816,9.61093303 C4.50628285,13.5224575 5.20702345,15.6197057 5.21114467,15.6240727 C5.21387122,15.6269634 5.41120724,15.6395801 5.64967138,15.6521227 C6.37216413,15.6901201 7.26747585,15.7715416 7.94666006,15.8609801 C8.10391715,15.8816866 8.23925424,15.8922907 8.24740187,15.8845566 C8.253002,15.8792406 8.2566577,14.1264139 8.25763102,11.65366 L5.30980013,2.67145433 L5.30838196,3.52144765 L5.30252801,7.03244577 L5.02997771,6.21739262 C4.76366643,5.42099624 4.58585198,4.88839621 3.5159469,1.68235336 C3.22825922,0.82027785 2.98413596,0.0890807116 2.97343467,0.0574716965 L2.95396231,1.24344979e-14 L1.47699662,1.24344979e-14 L2.66453526e-15,1.24344979e-14 Z" id="path5623" fill="url(#radialGradient-1)"></path>
                <path d="M2.96761132,8.91235892 L2.96761132,8.90830974 L3.20192569,9.61093387 C4.50622038,13.5224584 5.20696098,15.6197065 5.2110822,15.6240735 C5.21380875,15.6269642 5.41114477,15.6395809 5.64960891,15.6521235 C6.37210166,15.6901209 7.26741338,15.7715424 7.94659759,15.8609809 C8.10304874,15.8815813 8.20153837,15.8881244 8.2109387,15.8806167 L5.30246633,7.03081399 L5.30246633,7.03244577 L5.02991603,6.21739262 C4.76360475,5.42099624 4.5857903,4.88839621 3.51588522,1.68235336 C3.22819754,0.82027785 2.98407428,0.0890807116 2.97337299,0.0574716965 L2.95390063,-3.19744231e-14 L1.47693494,-3.19744231e-14 L1.77635684e-15,-3.19744231e-14 L2.96761132,8.91235892 Z" id="path4159" fill="#EDEDED"></path>
                <path d="M5.27628473,3.51099825 L5.27043079,7.02199637 L4.99788049,6.20694322 C4.99778584,6.20666234 4.99744983,6.20562409 4.99735676,6.20534321 L4.64516129,14.0217552 C4.99143655,15.0581504 5.17696277,15.611415 5.17904665,15.6136233 C5.1817732,15.616514 5.37910922,15.6291307 5.61757336,15.6416733 C6.34006611,15.6796707 7.23537784,15.7610922 7.91456204,15.8505307 C8.07181914,15.8712372 8.20715623,15.8818413 8.21530386,15.8741072 C8.22345165,15.866373 8.22788837,12.291529 8.22516324,7.93001657 L8.22020279,3.01980663e-14 L6.75115535,3.01980663e-14 L5.28210792,3.01980663e-14 L5.27628473,3.51099825 Z" id="path5715" fill="#D6D6D6"></path>
                <path d="M4.4408921e-16,8.8817842e-15 L4.4408921e-16,7.93804957 C4.4408921e-16,12.3039825 0.00403082953,15.8804028 0.00896588241,15.8856342 C0.0139006198,15.8908639 0.269012124,15.8653376 0.57588016,15.8289135 C0.882747882,15.7924877 1.30686065,15.7471937 1.51834433,15.7282727 C1.84269375,15.6992518 2.81110528,15.6332608 2.92324428,15.6325302 C2.95586478,15.6323128 2.95795702,15.4539446 2.96268179,12.2703052 L2.967673,8.9083089 L3.20198737,9.61093303 C3.23819905,9.71953038 3.24955769,9.75344244 3.28483691,9.85923701 L3.63693994,2.04475161 C3.56233567,1.82119829 3.60144428,1.9385519 3.5159469,1.68235336 C3.22825922,0.82027785 2.98413596,0.0890807116 2.97343467,0.0574716965 L2.95396231,8.8817842e-15 L1.47699662,8.8817842e-15 L4.4408921e-16,8.8817842e-15 Z" id="path5717" fill="#D6D6D6"></path>
                <path d="M7.88750302e-07,4.45585254 L2.96169664,12.7823257 C2.96200583,12.591517 2.96235919,12.4884161 2.96268258,12.2703052 L2.96767379,8.9083089 L3.20198816,9.61093303 C4.50628285,13.5224575 5.20702345,15.6197057 5.21114467,15.6240727 C5.21387122,15.6269634 5.41120724,15.6395801 5.64967138,15.6521227 C6.37216413,15.6901201 7.26747585,15.7715416 7.94666006,15.8609801 C8.04325408,15.8736989 8.13560076,15.8822548 8.19436176,15.8851707 C8.23126491,15.8870019 8.20779569,15.8866087 8.2109387,15.8836253 C8.21125205,15.8833278 8.21167349,15.8775618 8.21219009,15.8665071 C8.22090598,15.6799972 8.25671216,13.9880506 8.25763102,11.65366 L5.30980013,2.67145433 L5.30838196,3.52144765 L5.30252801,7.03244577 L5.02997771,6.21739262 C4.76366643,5.42099624 4.58585198,4.88839621 3.5159469,1.68235336 C3.22825922,0.82027785 2.98413596,0.0890807116 2.97343467,0.0574716965 L2.95396231,1.24344979e-14 L1.47699662,1.24344979e-14 L3.55271368e-15,1.24344979e-14 L7.88750302e-07,4.45585254 Z" id="path5719" fill="url(#radialGradient-2)"></path>
                <path d="M2.96761132,8.91235892 L2.96761132,8.90830974 L3.20192569,9.61093387 C4.50622038,13.5224584 5.14883556,15.6188588 5.15295678,15.6232258 C5.15568334,15.6261165 5.41114477,15.6395809 5.64960891,15.6521235 C6.37210166,15.6901209 7.26741338,15.7715424 7.94659759,15.8609809 C8.10304874,15.8815813 8.20153837,15.894594 8.2109387,15.8870863 L5.30246633,7.03081399 L5.30246633,7.03244577 L5.02991603,6.21739262 C4.76360475,5.42099624 4.5857903,4.88839621 3.51588522,1.68235336 C3.22819754,0.82027785 2.98407428,0.0890807116 2.97337299,0.0574716965 L2.95390063,-3.19744231e-14 L1.47693494,-3.19744231e-14 L1.77635684e-15,-3.19744231e-14 L2.96761132,8.91235892 Z" id="path5721" fill="#EDEDED"></path>
            </g>
            <g id="paypal-light" opacity="0.6" transform="translate(937.588235, 452.000000) rotate(19.000000) translate(-937.588235, -452.000000) translate(931.000000, 444.000000)">
                <path d="M10.8584238,1.17535073 C10.1617039,0.381239826 8.9022806,0.0407876669 7.29116775,0.0407876669 L2.6151531,0.0407876669 C2.28552216,0.0407876669 2.0054191,0.28051926 1.95381021,0.605571995 L0.0068234151,12.95383 C-0.0318832484,13.1973075 0.156655661,13.4178938 0.403462665,13.4178938 L3.2902306,13.4178938 L4.01525219,8.81929245 L3.99277736,8.9632979 C4.04438624,8.63824515 4.3224083,8.3985136 4.65162304,8.3985136 L6.0234205,8.3985136 C8.7183199,8.3985136 10.8284574,7.3039058 11.4448506,4.13745099 C11.4631634,4.04380584 11.478979,3.95265789 11.4927137,3.86359094 C11.4148842,3.82238707 11.4148842,3.82238707 11.4927137,3.86359094 C11.6762582,2.69323462 11.4914651,1.89662651 10.8584238,1.17535073" id="Path" fill="#E8E8E8"></path>
                <path d="M5.1198488,3.44197964 C5.19684595,3.40535399 5.28258325,3.38496015 5.3724826,3.38496015 L9.03837825,3.38496015 C9.47247555,3.38496015 9.8774388,3.4132618 10.2474412,3.4727785 C10.3535724,3.48984272 10.4563739,3.50940415 10.5562621,3.531879 C10.6561503,3.55393763 10.753125,3.57890967 10.8471864,3.60637891 C10.894217,3.62011354 10.9404153,3.63426436 10.9857812,3.64924758 C11.1676609,3.71001288 11.3370546,3.780767 11.4927136,3.86359094 C11.6762581,2.69281841 11.491465,1.89662651 10.8584238,1.17535073 C10.1612876,0.381239826 8.9022806,0.0407876669 7.29116775,0.0407876669 L2.61473689,0.0407876669 C2.28552215,0.0407876669 2.00541909,0.28051926 1.95381021,0.605571995 L0.0068234151,12.9534139 C-0.0318832484,13.1973074 0.156655661,13.4174776 0.403046465,13.4174776 L3.2902306,13.4174776 L4.79437987,3.87899036 C4.82517872,3.68337604 4.95087132,3.52313878 5.1198488,3.44197964 Z" id="Path" fill="#E8E8E8"></path>
                <path d="M11.4448506,4.13745098 C10.8284574,7.3034896 8.7183199,8.3985136 6.0234205,8.3985136 L4.65120683,8.3985136 C4.32199209,8.3985136 4.04397003,8.63824515 3.99277735,8.9632979 L3.09087047,14.6810629 C3.05715822,14.8941577 3.22197369,15.0872747 3.43756564,15.0872747 L5.87109105,15.0872747 C6.1591019,15.0872747 6.4042441,14.8775096 6.4491938,14.5932445 L6.4729172,14.4692168 L6.93157035,11.5624712 L6.9611206,11.4018177 C7.0060703,11.1175527 7.2512125,10.9077875 7.53922335,10.9077875 L7.90339895,10.9077875 C10.2607597,10.9077875 12.1066097,9.9501097 12.6460058,7.1802942 C12.8711703,6.0228401 12.7546342,5.0564221 12.1590509,4.37759878 C11.9784198,4.17199564 11.7540877,4.00218576 11.4927137,3.86359094 C11.4785629,3.95307408 11.4631634,4.04380583 11.4448506,4.13745098 Z" id="Path" fill="#EDEDED"></path>
                <path d="M10.8476026,3.60637891 C10.7535412,3.57890967 10.6565665,3.55393763 10.5566783,3.531879 C10.4567901,3.50982036 10.3535724,3.49025893 10.2478574,3.4731947 C9.8774388,3.4132618 9.47289175,3.38496015 9.03837825,3.38496015 L5.3728988,3.38496015 C5.28258325,3.38496015 5.19684595,3.40535399 5.120265,3.44239585 C4.95087132,3.52355498 4.82559492,3.68337604 4.79479607,3.87940657 L4.01566839,8.81929245 L3.99319355,8.9632979 C4.04438624,8.63824515 4.3224083,8.3985136 4.65162304,8.3985136 L6.0238367,8.3985136 C8.7187361,8.3985136 10.8288735,7.3039058 11.4452668,4.13745099 C11.4635796,4.04380583 11.478979,3.95307408 11.4931298,3.86359094 C11.3370546,3.7811832 11.1680771,3.71001288 10.9861974,3.64966378 C10.9408315,3.63468056 10.8946332,3.62011354 10.8476026,3.60637891" id="Path" fill="#E1E1E1"></path>
            </g>
            <g id="linkedin-light" opacity="0.6" transform="translate(162.000000, 244.000000) rotate(-26.000000) translate(-162.000000, -244.000000) translate(154.000000, 236.000000)" fill="#EDEDED" fill-rule="nonzero">
                <path d="M13.6313333,13.6346667 L11.262,13.6346667 L11.262,9.922 C11.262,9.03666667 11.244,7.89733333 10.0273333,7.89733333 C8.792,7.89733333 8.60333333,8.86066667 8.60333333,9.85666667 L8.60333333,13.6346667 L6.234,13.6346667 L6.234,6 L8.51,6 L8.51,7.04066667 L8.54066667,7.04066667 C8.85866667,6.44066667 9.632,5.80733333 10.7873333,5.80733333 C13.188,5.80733333 13.632,7.38733333 13.632,9.444 L13.632,13.6346667 L13.6313333,13.6346667 Z M3.558,4.95533333 C2.79533333,4.95533333 2.18266667,4.338 2.18266667,3.57866667 C2.18266667,2.82 2.796,2.20333333 3.558,2.20333333 C4.318,2.20333333 4.934,2.82 4.934,3.57866667 C4.934,4.338 4.31733333,4.95533333 3.558,4.95533333 Z M4.746,13.6346667 L2.37,13.6346667 L2.37,6 L4.746,6 L4.746,13.6346667 Z M14.8166667,0 L1.18066667,0 C0.528,0 0,0.516 0,1.15266667 L0,14.8473333 C0,15.4846667 0.528,16 1.18066667,16 L14.8146667,16 C15.4666667,16 16,15.4846667 16,14.8473333 L16,1.15266667 C16,0.516 15.4666667,0 14.8146667,0 L14.8166667,0 Z" id="Shape"></path>
            </g>
            <g id="amazon-light" opacity="0.6" transform="translate(612.500000, 87.000000) rotate(12.000000) translate(-612.500000, -87.000000) translate(603.000000, 79.000000)">
                <path d="M13.9891812,5.83080127 C13.9891812,6.48934148 14.0123891,7.14392292 13.9814453,7.80246313 C13.9505015,8.55169199 14.1749086,9.19443014 14.6391625,9.76224869 C14.6933141,9.82928375 14.7436463,9.8963188 14.7900296,9.96731261 C14.9564333,10.2236425 14.9254572,10.4010611 14.6971983,10.5982404 C14.2096719,11.0162528 13.726062,11.438158 13.2386003,11.8561703 C12.9484214,12.1045827 12.7665782,12.1006569 12.4725475,11.8561703 C12.0779172,11.5288796 11.7683822,11.1266693 11.4937076,10.6968136 C11.4279359,10.5943147 11.393108,10.5982404 11.3118644,10.6770858 C10.8243379,11.1621002 10.3097843,11.6116508 9.65595124,11.8364425 C8.64613522,12.1873868 7.62084732,12.2426116 6.60717952,11.8758652 C5.63219144,11.5209621 5.0479819,10.7875023 4.83131069,9.76620746 C4.59143165,8.62657859 4.71523914,7.54217447 5.40390013,6.57607137 C5.92622211,5.84657034 6.64971103,5.41674766 7.48153556,5.15256622 C8.34045209,4.88442601 9.22642824,4.78189406 10.1162885,4.6912054 C10.3677877,4.66359302 10.6154027,4.63993942 10.8668695,4.61628581 C10.928757,4.61232704 10.982941,4.60444251 10.9790569,4.52163838 C10.9713533,4.103659 11.0138848,3.6777621 10.9171693,3.26766725 C10.7933618,2.74323014 10.4567349,2.43563426 9.94218122,2.321259 C9.57464289,2.23845488 9.21095635,2.26210849 8.85500575,2.38436828 C8.3133601,2.57363014 7.97673318,2.9561456 7.84133795,3.52396416 C7.76783028,3.83548581 7.62466674,3.9459023 7.32675192,3.91433117 C6.69224255,3.84729612 6.05773318,3.78026107 5.42710797,3.71322601 C5.16787287,3.68561364 5.03247764,3.48450849 5.08662926,3.22817859 C5.41548786,1.59172498 6.46786776,0.672929107 7.98450149,0.250990962 C9.14906878,-0.0723409965 10.329108,-0.0920688315 11.497527,0.243106426 C12.4376872,0.511246632 13.2269802,0.984450756 13.6680262,1.92294148 C13.9195253,2.45529612 13.9775611,3.03099921 13.9852971,3.60673529 C13.993033,4.34418684 13.9852971,5.08945694 13.9891812,5.83080127 C13.9852971,5.83080127 13.9891812,5.83080127 13.9891812,5.83080127 Z M10.9790892,7.0611188 C10.9790892,6.86393942 10.9713856,6.66679302 10.9829734,6.46961364 C10.9907093,6.34735385 10.9481454,6.30397241 10.8282221,6.3158157 C10.5341591,6.34339509 10.2362766,6.34735385 9.94221359,6.38677653 C9.42765993,6.45381158 8.92466163,6.58395591 8.50682347,6.91517241 C7.89937372,7.40021983 7.77171444,8.06268581 7.87228173,8.80795591 C7.99223744,9.68333735 8.75829025,10.1683848 9.57852705,9.87659096 C10.1356446,9.67941158 10.4760909,9.26146519 10.7121182,8.7369621 C10.9597332,8.20467344 10.9790892,7.63289612 10.9790892,7.0611188 Z" id="Shape" fill="#EDEDED" fill-rule="nonzero"></path>
                <path d="M13.9891812,5.83080127 C13.9891812,6.48934148 14.0123891,7.14392292 13.9814453,7.80246313 C13.9505015,8.55169199 14.1749086,9.19443014 14.6391625,9.76224869 C14.6933141,9.82928375 14.7436463,9.8963188 14.7900296,9.96731261 C14.9564333,10.2236425 14.9254572,10.4010611 14.6971983,10.5982404 C14.2096719,11.0162528 13.726062,11.438158 13.2386003,11.8561703 C12.9484214,12.1045827 12.7665782,12.1006569 12.4725475,11.8561703 C12.0779172,11.5288796 11.7683822,11.1266693 11.4937076,10.6968136 C11.4279359,10.5943147 11.393108,10.5982404 11.3118644,10.6770858 C10.8243379,11.1621002 10.3097843,11.6116508 9.65595124,11.8364425 C8.64613522,12.1873868 7.62084732,12.2426116 6.60717952,11.8758652 C5.63219144,11.5209621 5.0479819,10.7875023 4.83131069,9.76620746 C4.59143165,8.62657859 4.71523914,7.54217447 5.40390013,6.57607137 C5.92622211,5.84657034 6.64971103,5.41674766 7.48153556,5.15256622 C8.34045209,4.88442601 9.22642824,4.78189406 10.1162885,4.6912054 C10.3677877,4.66359302 10.6154027,4.63993942 10.8668695,4.61628581 C10.928757,4.61232704 10.982941,4.60444251 10.9790569,4.52163838 C10.9713533,4.103659 11.0138848,3.6777621 10.9171693,3.26766725 C10.7933618,2.74323014 10.4567349,2.43563426 9.94218122,2.321259 C9.57464289,2.23845488 9.21095635,2.26210849 8.85500575,2.38436828 C8.3133601,2.57363014 7.97673318,2.9561456 7.84133795,3.52396416 C7.76783028,3.83548581 7.62466674,3.9459023 7.32675192,3.91433117 C6.69224255,3.84729612 6.05773318,3.78026107 5.42710797,3.71322601 C5.16787287,3.68561364 5.03247764,3.48450849 5.08662926,3.22817859 C5.41548786,1.59172498 6.46786776,0.672929107 7.98450149,0.250990962 C9.14906878,-0.0723409965 10.329108,-0.0920688315 11.497527,0.243106426 C12.4376872,0.511246632 13.2269802,0.984450756 13.6680262,1.92294148 C13.9195253,2.45529612 13.9775611,3.03099921 13.9852971,3.60673529 C13.993033,4.34418684 13.9852971,5.08945694 13.9891812,5.83080127 C13.9852971,5.83080127 13.9891812,5.83080127 13.9891812,5.83080127 Z" id="Path"></path>
                <path d="M10.9790892,7.0611188 C10.9790892,6.86393942 10.9713856,6.66679302 10.9829734,6.46961364 C10.9907093,6.34735385 10.9481454,6.30397241 10.8282221,6.3158157 C10.5341591,6.34339509 10.2362766,6.34735385 9.94221359,6.38677653 C9.42765993,6.45381158 8.92466163,6.58395591 8.50682347,6.91517241 C7.89937372,7.40021983 7.77171444,8.06268581 7.87228173,8.80795591 C7.99223744,9.68333735 8.75829025,10.1683848 9.57852705,9.87659096 C10.1356446,9.67941158 10.4760909,9.26146519 10.7121182,8.7369621 C10.9597332,8.20467344 10.9790892,7.63289612 10.9790892,7.0611188 Z" id="Path"></path>
                <path d="M9.5475509,15.9611435 C6.59552705,15.9414157 3.94526981,15.1685662 1.5503635,13.5399642 C1.06286947,13.2087147 0.598583265,12.845927 0.157537268,12.4476755 C0.118857541,12.4121786 0.0801454453,12.3767147 0.0492016634,12.3333002 C0.00663777921,12.2741497 -0.0243060027,12.2031889 0.0259938269,12.1321951 C0.0762936565,12.0533167 0.161421425,12.0454322 0.234929091,12.0809291 C0.40515226,12.1637332 0.567671851,12.2544219 0.734010863,12.3411848 C2.25841291,13.1613745 3.86402619,13.7528796 5.54703131,14.1274776 C7.07140098,14.4666116 8.61124255,14.6243683 10.1743243,14.5809538 C12.4067434,14.5178776 14.5578865,14.0604425 16.627786,13.2126075 C16.7283856,13.169259 16.8328695,13.1258776 16.9373209,13.102191 C17.0843686,13.0745786 17.2313839,13.0943064 17.2971557,13.2559889 C17.3590432,13.4058281 17.2777996,13.5241291 17.169464,13.6187765 C17.0920722,13.6857786 17.0030926,13.7410033 16.9141131,13.8001538 C15.5793226,14.6834528 14.1168405,15.2512714 12.569263,15.6022487 C11.5478269,15.8389167 10.5109512,15.953226 9.5475509,15.9611435 Z" id="Path" fill="#EDEDED"></path>
                <path d="M16.9953567,12.4476755 C16.5504265,12.4437167 16.1093805,12.5028673 15.6683022,12.5501745 C15.5831744,12.558059 15.4864589,12.5817126 15.4477792,12.4870982 C15.4013635,12.3806075 15.4903431,12.3175312 15.5638507,12.2662652 C16.1132647,11.895626 16.728418,11.7497126 17.3745475,11.7142157 C17.8194776,11.6866363 18.2605236,11.7063642 18.6938661,11.8404013 C18.8911812,11.8995518 18.9878967,12.0178528 18.9840449,12.2229167 C18.9608371,13.3191312 18.6010023,14.273424 17.8233618,15.0502652 C17.7962698,15.0778776 17.765326,15.1015312 17.7343822,15.1251848 C17.6647587,15.1764837 17.579631,15.223758 17.5060909,15.1606817 C17.4364674,15.1015312 17.4751471,15.0147683 17.5060909,14.9438075 C17.7343822,14.3641456 17.9665253,13.7884425 18.0786804,13.169325 C18.0941846,13.0904466 18.0980364,13.0116013 18.1019206,12.9366487 C18.1057724,12.6803188 18.0167928,12.5699353 17.7691778,12.506859 C17.5099427,12.4358322 17.2507076,12.4476755 16.9953567,12.4476755 Z" id="Path" fill="#EDEDED"></path>
            </g>
            <g id="adobe-light" opacity="0.6" transform="translate(943.000000, 180.000000) scale(-1, 1) rotate(-207.000000) translate(-943.000000, -180.000000) translate(934.000000, 172.000000)" fill="#EDEDED">
                <path d="M0,8.03334877 C0,3.65354331 0.0293877551,0.0666975452 0.066122449,0.0666975452 C0.11755102,0.0666975452 6.68571429,15.814729 6.68571429,15.9481241 C6.68571429,15.9777675 5.17959184,16 3.34285714,16 L0,16 L0,8.03334877 Z" id="Path"></path>
                <path d="M11.3142857,15.955535 C11.3142857,15.9333025 12.2106122,13.7619268 13.3053061,11.1236684 C14.4,8.48540991 15.3036735,6.2992126 15.3110204,6.25474757 C15.3257143,6.21769338 15.4138776,5.99536823 15.5093878,5.77304308 C15.6122449,5.55071792 16.1853061,4.17230199 16.7877551,2.71977767 C17.3902041,1.25984252 17.9118367,0.0666975452 17.9412245,0.0666975452 C17.9706122,0.0666975452 18,3.65354331 18,8.03334877 L18,16 L14.6571429,16 C12.8204082,16 11.3142857,15.9777675 11.3142857,15.955535 Z" id="Path"></path>
                <path d="M8.50040816,9.01899027 C6.86938776,5.15794349 6.09795918,3.31264474 6.09795918,3.25335804 C6.09795918,3.20889301 6.73714286,3.17183881 7.64816327,3.16442798 L9.19836735,3.14219546 L9.80816327,1.58591941 L10.4106122,0.0296433534 L11.8212245,0.00741083835 C12.7616327,-0.00741083835 13.2244898,0.0148216767 13.2244898,0.0666975452 C13.2244898,0.163038444 9.11020408,10.0120426 9.03673469,10.0935618 C9.00734694,10.130616 8.76489796,9.64150069 8.50040816,9.01899027 Z" id="Path"></path>
            </g>
            <g id="apple-light" opacity="0.6" transform="translate(315.000000, 112.000000) rotate(-22.000000) translate(-315.000000, -112.000000) translate(308.000000, 104.000000)" fill="#EDEDED" fill-rule="nonzero">
                <path d="M8.14254527,1.39173727 C9.18871831,0.00675205255 10.6431489,-7.99360578e-15 10.6431489,-7.99360578e-15 C10.6431489,-7.99360578e-15 10.859493,1.30212151 9.82017304,2.55647947 C8.71043863,3.8958555 7.44907243,3.67668966 7.44907243,3.67668966 C7.44907243,3.67668966 7.21222133,2.62331691 8.14254527,1.39173727 Z M7.5821328,4.58882102 C8.12033803,4.58882102 9.11921932,3.84572742 10.4194024,3.84572742 C12.6574427,3.84572742 13.5378853,5.44528079 13.5378853,5.44528079 C13.5378853,5.44528079 11.8158954,6.32958949 11.8158954,8.47532348 C11.8158954,10.8958949 13.9610262,11.7301018 13.9610262,11.7301018 C13.9610262,11.7301018 12.461501,15.9693662 10.4360644,15.9693662 C9.50579276,15.9693662 8.78255332,15.3396913 7.80237425,15.3396913 C6.80349296,15.3396913 5.8122495,15.9928539 5.16664386,15.9928539 C3.31711268,15.9929064 0.980513078,11.9715205 0.980513078,8.73899507 C0.980513078,5.55864696 2.95829175,3.89028571 4.81336821,3.89028571 C6.019334,3.89028571 6.95517706,4.58882102 7.5821328,4.58882102 Z" id="Shape"></path>
            </g>
            <g id="bitcoin-light" opacity="0.6" transform="translate(382.000000, 458.000000) rotate(-37.000000) translate(-382.000000, -458.000000) translate(374.000000, 450.000000)" fill="#EDEDED">
                <path d="M15.76,10.0285538 C14.6915,14.2483692 10.3505,16.8162462 6.06425,15.7641846 C1.78,14.7121231 -0.82825,10.4379077 0.2405,6.21833846 C1.3085,1.99803077 5.64925,-0.570338462 9.93425,0.481723077 C14.22025,1.53378462 16.82825,5.80849231 15.75975,10.0285538 L15.76,10.0285538 Z M11.5275,7.00086154 C11.6865,5.95273846 10.876,5.38929231 9.76775,5.01341538 L10.12725,3.5936 L9.24925,3.37821538 L8.89925,4.76061538 C8.66875,4.704 8.43175,4.65058462 8.19625,4.59766154 L8.54875,3.20615385 L7.6715,2.99076923 L7.31175,4.41009231 C7.12075,4.36726154 6.93325,4.32492308 6.75125,4.28036923 L6.75225,4.27593846 L5.54175,3.97833846 L5.30825,4.90141538 C5.30825,4.90141538 5.9595,5.04836923 5.94575,5.05747692 C6.30125,5.14486154 6.36575,5.37649231 6.35475,5.56012308 L5.94525,7.1776 C5.96975,7.18375385 6.0015,7.19261538 6.0365,7.2064 L5.944,7.18375385 L5.36975,9.4496 C5.32625,9.55593846 5.216,9.71544615 4.9675,9.65489231 C4.97625,9.66744615 4.3295,9.49809231 4.3295,9.49809231 L3.89375,10.4876308 L5.03625,10.768 C5.24875,10.8204308 5.457,10.8753231 5.66175,10.9270154 L5.2985,12.3633231 L6.17525,12.5787077 L6.53525,11.1579077 C6.7745,11.2219077 7.007,11.2809846 7.2345,11.3366154 L6.876,12.7507692 L7.75375,12.9661538 L8.117,11.5328 C9.61375,11.8116923 10.7395,11.6992 11.21275,10.3665231 C11.5945,9.29329231 11.194,8.67421538 10.4065,8.27027692 C10.98,8.13956923 11.412,7.76812308 11.52725,7.00086154 L11.5275,7.00086154 Z M9.52175,9.76984615 C9.25025,10.8430769 7.41525,10.2631385 6.82,10.1174154 L7.302,8.21489231 C7.897,8.36110769 9.80475,8.65058462 9.522,9.76984615 L9.52175,9.76984615 Z M9.793,6.98535385 C9.5455,7.9616 8.018,7.4656 7.52225,7.344 L7.95925,5.61846154 C8.455,5.74006154 10.051,5.96701538 9.793,6.98535385 Z" id="Combined-Shape"></path>
            </g>
            <g id="creative-cloud-light" opacity="0.6" transform="translate(150.000000, 366.000000) rotate(-36.000000) translate(-150.000000, -366.000000) translate(142.000000, 358.000000)" fill="#EDEDED" fill-rule="nonzero">
                <path d="M16,7.64326206 L16,8.35745213 C15.9949959,8.39619694 15.9886749,8.43422756 15.9853827,8.47279382 C15.9581235,8.7834665 15.9404774,9.0961032 15.9028148,9.40445476 C15.7798189,10.406642 15.5139424,11.3381244 15.1188807,12.1994376 C14.5189136,13.5071196 13.7078519,14.5043075 12.6885926,15.1852877 C12.1003197,15.5801901 11.4660463,15.8339666 10.813893,15.9353658 C10.669037,15.9580413 10.5243128,15.9783958 10.3794568,16 L4.75851852,16 C4.73020576,15.9928581 4.70202469,15.9814311 4.67344856,15.9791099 C4.10666667,15.9307236 3.56134979,15.7555685 3.04158025,15.4472169 C1.90999177,14.7758782 1.0662716,13.6878097 0.513975309,12.1901531 C0.269925036,11.5295554 0.11198663,10.8167017 0.0471440329,10.0831139 C0.0312098765,9.9047449 0.0156707819,9.72655448 0,9.54836406 L0,8.85542115 C0.00539917695,8.81703343 0.0136954733,8.77864572 0.0154074074,8.74007945 C0.0447736626,8.07427577 0.145514403,7.42775521 0.322897119,6.80640986 C0.800263374,5.13449092 1.63239506,3.89447842 2.8149465,3.09190733 C3.42847737,2.67535598 4.08243621,2.45645672 4.76641975,2.4078918 C5.10130041,2.38432353 5.4359177,2.40967728 5.76882305,2.47020488 C5.79897942,2.47573986 5.84243621,2.45752801 5.86337449,2.42842476 C6.34205761,1.76547784 6.88711111,1.22697853 7.50169547,0.818818908 C8.09784362,0.422979065 8.72520165,0.167834665 9.38561317,0.0657054859 C9.54100412,0.0416015712 9.69679012,0.0217827969 9.85244444,0 L10.3316543,0 C10.3629959,0.00660625809 10.3944691,0.0141052538 10.4258107,0.0191045842 C10.6632428,0.0565995626 10.9019918,0.0801678347 11.1371852,0.133553542 C11.8709465,0.300495469 12.5540082,0.657590501 13.186107,1.18805517 C14.1553251,2.00151765 14.8939588,3.10262018 15.3985844,4.4888631 C15.6904252,5.28684346 15.877793,6.14750412 15.9523292,7.03245101 C15.9694486,7.23617373 15.9840658,7.43989644 16,7.64326206 M7.05382716,3.02191671 C7.06344033,3.03905727 7.0658107,3.04709191 7.069893,3.04977012 C7.39897626,3.26969953 7.71350595,3.52757879 8.01000823,3.82055975 C8.02870782,3.83895014 8.07506173,3.8312726 8.09771193,3.81198947 C8.91259259,3.11190466 9.79595062,2.87032987 10.7448889,3.09851359 C11.6747325,3.32205508 12.4314074,3.95197072 13.0095144,4.95808597 C13.6641317,6.09668348 13.913679,7.38418962 13.7330041,8.81667634 C13.6118519,9.77672633 13.3281975,10.6380395 12.8460905,11.3595501 C11.9664198,12.6749096 10.864856,13.2189439 9.56813169,12.9886176 C8.76984362,12.8468509 8.08072428,12.3799491 7.51038683,11.5984466 C6.77833745,10.5959023 6.04154733,9.59996429 5.30739095,8.6000982 C5.20954733,8.46690175 5.10064198,8.35977324 4.95973663,8.33638352 C4.71361317,8.29549614 4.4902716,8.46208097 4.384,8.76186225 C4.28918519,9.02950498 4.3014321,9.33125028 4.50712757,9.60549926 C5.32556379,10.6948177 6.1367572,11.7941347 6.9542716,12.8845244 C7.09419154,13.0720941 7.2442496,13.2452312 7.40319342,13.4024907 C8.00039506,13.9904477 8.67371193,14.3155827 9.4028642,14.4464581 C9.97517695,14.5489443 10.5430123,14.526983 11.1065021,14.3552203 C12.1813333,14.0279427 13.0716708,13.2841137 13.7729053,12.1364103 C14.3519342,11.1879659 14.7020905,10.0981119 14.8241646,8.87452573 C14.894906,8.17678196 14.8801336,7.46798502 14.7804444,6.77677097 C14.6178107,5.64656519 14.2651523,4.63527206 13.7000823,3.77449449 C12.6219588,2.13310717 11.2655802,1.40034817 9.65148971,1.56389769 C9.03058436,1.62674642 8.44325926,1.87403473 7.8905679,2.26630362 C7.59231957,2.47640283 7.31176429,2.72975639 7.05382716,3.02191671 M6.65889712,14.4803821 C6.63668394,14.4524806 6.61456027,14.4244484 6.59252675,14.3962862 C6.25790947,13.9679507 5.92144856,13.5422934 5.59078189,13.108423 C5.52678189,13.0245056 5.4679177,12.9836183 5.37731687,12.986475 C5.04243621,12.997545 4.70729218,12.999509 4.37728395,12.8984511 C2.73646091,12.3953042 1.7837037,9.976521 2.38841152,7.84823461 C2.86538272,6.17006651 4.1858107,5.14806053 5.48793416,5.46319689 C6.07157202,5.60442798 6.58383539,5.93938312 7.00431276,6.52734009 C7.51710288,7.2451011 8.04516872,7.94232915 8.56348971,8.65276972 C8.68148148,8.81453377 8.81698765,8.88827389 8.98041152,8.85667098 C9.19163786,8.8157836 9.35980247,8.6793733 9.43618107,8.39851806 C9.51097942,8.1221265 9.47476543,7.86037584 9.32042798,7.64843994 C8.77642798,6.90121859 8.24533333,6.13524974 7.67934156,5.41980985 C6.58159671,4.03160291 5.28711111,3.61880105 3.85540741,4.20907914 C1.92974486,5.00236575 0.802765432,7.69843325 1.24273251,10.3587912 C1.64372016,12.7827523 3.2072428,14.483953 5.03677366,14.4860956 C5.54758848,14.4868098 6.05853498,14.4864527 6.56934979,14.4860956 C6.59463374,14.4860956 6.6199177,14.4830603 6.65889712,14.4803821" id="Shape"></path>
            </g>
            <g id="facebook-light" opacity="0.6" transform="translate(834.000000, 355.000000) rotate(20.000000) translate(-834.000000, -355.000000) translate(826.000000, 347.000000)" fill="#EDEDED">
                <path d="M15.1109513,15.9937079 C15.598382,15.9937079 15.993588,15.5984419 15.993588,15.1110112 L15.993588,0.882696629 C15.993588,0.395086142 15.5983221,-1.15463195e-14 15.1109513,-1.15463195e-14 L0.882696629,-1.15463195e-14 C0.395086142,-1.15463195e-14 0,0.395146067 0,0.882696629 L0,15.1109513 C0,15.5984419 0.395086142,15.9936479 0.882696629,15.9936479 L15.1109513,15.9936479 L15.1109513,15.9937079 Z M11.0353258,15.9937079 L11.0353258,9.80008989 L13.1142472,9.80008989 L13.4254981,7.38630712 L11.0352659,7.38630712 L11.0352659,5.84521348 C11.0352659,5.14636704 11.2293034,4.67014232 12.2314906,4.67014232 L13.509633,4.66954307 L13.509633,2.51068165 C13.2885693,2.48131835 12.5297978,2.41558052 11.647161,2.41558052 C9.80428464,2.41558052 8.54262172,3.54043446 8.54262172,5.60623221 L8.54262172,7.38630712 L6.45836704,7.38630712 L6.45836704,9.80008989 L8.54262172,9.80008989 L8.54262172,15.9936479 L11.0353258,15.9936479 L11.0353258,15.9937079 Z" id="Combined-Shape"></path>
            </g>
            <g id="github-light" transform="translate(88.500000, 95.000000) rotate(-23.000000) translate(-88.500000, -95.000000) translate(80.000000, 87.000000)" fill="#EDEDED">
                <path d="M8.20003216,0 C3.67186256,0 0,3.67233045 0,8.2025137 C0,11.8266603 2.34955472,14.9012922 5.60770169,15.9859115 C6.01749428,16.0618219 6.16798309,15.8079721 6.16798309,15.5913056 C6.16798309,15.3957396 6.16033003,14.7495356 6.15685721,14.064154 C3.87553694,14.5603383 3.3941657,13.0963596 3.3941657,13.0963596 C3.02115925,12.1482506 2.48370842,11.896202 2.48370842,11.896202 C1.7397535,11.3870871 2.53978801,11.3975087 2.53978801,11.3975087 C3.36323189,11.4554066 3.79681972,12.242817 3.79681972,12.242817 C4.52816959,13.4968196 5.71510182,13.1342505 6.18303197,12.9247247 C6.25660428,12.3945093 6.46915364,12.0327122 6.70363321,11.8278826 C4.88233278,11.6204154 2.96765212,10.9170854 2.96765212,7.77413412 C2.96765212,6.87864774 3.28798748,6.14688355 3.81257603,5.57247278 C3.72742766,5.36584187 3.44677247,4.53159853 3.89200067,3.40175461 C3.89200067,3.40175461 4.58058343,3.18129256 6.14759636,4.24255971 C6.80164386,4.06076054 7.50315322,3.96966796 8.20003216,3.96658007 C8.89691109,3.96966796 9.59893494,4.06076054 10.2542687,4.24255971 C11.8194166,3.18129256 12.5070347,3.40175461 12.5070347,3.40175461 C12.9533562,4.53159853 12.6725723,5.36584187 12.587424,5.57247278 C13.1131701,6.14688355 13.4313189,6.87858341 13.4313189,7.77413412 C13.4313189,10.9245478 11.5130368,11.6182925 9.68710595,11.8213208 C9.98120223,12.0758783 10.2432714,12.5750862 10.2432714,13.3403025 C10.2432714,14.4377879 10.2337533,15.3211158 10.2337533,15.5913056 C10.2337533,15.8095804 10.3813481,16.0653602 10.7970574,15.9848178 C14.0534036,14.8989763 16.4,11.825438 16.4,8.2025137 C16.4,3.67233045 12.7286519,0 8.20003216,0" id="Path" opacity="0.598632812"></path>
                <path d="M3.07518929,11.6824029 C3.05731167,11.723257 2.99359073,11.7355197 2.93568001,11.7075092 C2.87662002,11.6806603 2.84341872,11.6248974 2.86257332,11.5838496 C2.88013169,11.5417693 2.94385264,11.5300229 3.00278493,11.5582916 C3.06197262,11.5850759 3.09568471,11.6413552 3.07518929,11.6824029 M3.47564797,12.0435714 C3.436828,12.0799722 3.36091196,12.0630626 3.30938611,12.0055571 C3.25613634,11.9481806 3.24617596,11.8715065 3.28557057,11.8345248 C3.32560367,11.7981885 3.39922115,11.8151627 3.45259861,11.8726037 C3.50584838,11.9306256 3.51619186,12.0068479 3.47558413,12.0436359 M3.75038868,12.5056811 C3.70045904,12.5407266 3.61886048,12.5078755 3.5684839,12.4346866 C3.51861811,12.3615623 3.51861811,12.2737872 3.56956933,12.2386127 C3.62013745,12.2034381 3.70045904,12.235063 3.75153796,12.307671 C3.8013399,12.3820861 3.8013399,12.4698612 3.75032483,12.5057457 M4.2149514,13.0409152 C4.1703212,13.0906114 4.07531442,13.0773161 4.0057194,13.0094195 C3.93459201,12.9430719 3.91473508,12.8489074 3.95949298,12.7991467 C4.00463397,12.7493214 4.10021539,12.7633267 4.1703212,12.8306424 C4.24100164,12.8968609 4.26258248,12.9917354 4.21501525,13.0409152 M4.81538402,13.2216286 C4.79578249,13.2860399 4.70422354,13.3153413 4.6120261,13.2879762 C4.51995636,13.259772 4.45968324,13.1842596 4.4782632,13.1191383 C4.49741779,13.0542751 4.58935983,13.0237475 4.68225961,13.0530489 C4.77420165,13.081124 4.83460247,13.1560554 4.81544787,13.2216286 M5.49881989,13.2982381 C5.50111844,13.3661347 5.42290385,13.422414 5.32610931,13.4236402 C5.22874013,13.4257701 5.15001476,13.3708461 5.14899318,13.3041113 C5.14899318,13.2355693 5.22542,13.1798063 5.32272533,13.1781928 C5.41951987,13.1762566 5.49881989,13.2307933 5.49881989,13.2982381 M6.17012451,13.2722283 C6.18174496,13.3384468 6.11444849,13.4064725 6.01835628,13.4245438 C5.92386029,13.4419697 5.83638766,13.4011156 5.82432026,13.3354779 C5.81257211,13.2675814 5.88114555,13.1996203 5.97545,13.1820007 C6.07173375,13.1650911 6.15786557,13.2049126 6.17012451,13.2722283" id="Shape" fill-rule="nonzero"></path>
            </g>
            <g id="instagram-light" opacity="0.6" transform="translate(791.000000, 158.000000) rotate(28.000000) translate(-791.000000, -158.000000) translate(783.000000, 150.000000)" fill="#EDEDED" fill-rule="nonzero">
                <path d="M5.33397336,8 C5.33397336,6.527296 6.5275571,5.33312 8.00032001,5.33312 C9.47308292,5.33312 10.6673067,6.527296 10.6673067,8 C10.6673067,9.472704 9.47308292,10.66688 8.00032001,10.66688 C6.5275571,10.66688 5.33397336,9.472704 5.33397336,8 M3.89225169,8 C3.89225169,10.2688 5.73142926,12.107904 8.00032001,12.107904 C10.2692108,12.107904 12.1083883,10.2688 12.1083883,8 C12.1083883,5.7312 10.2692108,3.892096 8.00032001,3.892096 C5.73142926,3.892096 3.89225169,5.7312 3.89225169,8 M11.3109804,3.729216 C11.3107684,4.2594093 11.7404203,4.68938778 12.2706348,4.68959985 C12.8008493,4.68981191 13.230845,4.26017725 13.2310571,3.72998395 C13.2312692,3.19979065 12.8016174,2.76981212 12.2714029,2.7696 L12.2710188,2.7696 C11.7410565,2.76984699 11.3114395,3.19927504 11.3109804,3.729216 M4.76819073,14.511808 C3.98819153,14.476288 3.56423857,14.346368 3.2824993,14.236608 C2.90898036,14.0912 2.6424737,13.918016 2.36227049,13.638208 C2.08206728,13.3584 1.90862034,13.09216 1.76384655,12.718656 C1.65401816,12.437056 1.52409296,12.012992 1.48863555,11.233024 C1.44984999,10.38976 1.44210568,10.136448 1.44210568,8.000064 C1.44210568,5.86368 1.45049002,5.611072 1.48863555,4.767104 C1.52415697,3.987136 1.6550422,3.563904 1.76384655,3.281472 C1.90926037,2.907968 2.0824513,2.641472 2.36227049,2.36128 C2.64208968,2.081088 2.90834033,1.907648 3.2824993,1.76288 C3.56411056,1.653056 3.98819153,1.523136 4.76819073,1.48768 C5.61148846,1.448896 5.86481059,1.441152 8.00032001,1.441152 C10.1358294,1.441152 10.3894076,1.449536 11.2334093,1.48768 C12.0134085,1.5232 12.4366575,1.65408 12.7191008,1.76288 C13.0926197,1.907648 13.3591264,2.081472 13.6393296,2.36128 C13.9195328,2.641088 14.0923397,2.907968 14.2377535,3.281472 C14.3475819,3.563072 14.4775071,3.987136 14.5129645,4.767104 C14.5517501,5.611072 14.5594944,5.86368 14.5594944,8.000064 C14.5594944,10.136448 14.5517501,10.389056 14.5129645,11.233024 C14.4774431,12.012992 14.3468779,12.436928 14.2377535,12.718656 C14.0923397,13.09216 13.9191488,13.358656 13.6393296,13.638208 C13.3595104,13.91776 13.0926197,14.0912 12.7191008,14.236608 C12.4374895,14.346432 12.0134085,14.476352 11.2334093,14.511808 C10.3901116,14.550592 10.1367895,14.558336 8.00032001,14.558336 C5.86385055,14.558336 5.61123245,14.550592 4.76819073,14.511808 M4.70194808,0.048448 C3.85026601,0.087232 3.26829073,0.222272 2.7600464,0.420032 C2.23368935,0.624256 1.78810352,0.89824 1.34283771,1.342784 C0.897571903,1.787328 0.624280971,2.2336 0.420048802,2.759936 C0.222280891,3.26848 0.0872354894,3.850112 0.048449938,4.70176 C0.00902436097,5.554752 0,5.827456 0,8 C0,10.172544 0.00902436097,10.445248 0.048449938,11.29824 C0.0872354894,12.149952 0.222280891,12.73152 0.420048802,13.240064 C0.624280971,13.76608 0.897635905,14.212864 1.34283771,14.657216 C1.78803952,15.101568 2.23368935,15.375168 2.7600464,15.579968 C3.26925077,15.777728 3.85026601,15.912768 4.70194808,15.951552 C5.55542222,15.990336 5.82768911,16 8.00032001,16 C10.1729509,16 10.4456658,15.990976 11.2986919,15.951552 C12.150438,15.912768 12.7320293,15.777728 13.2405936,15.579968 C13.7666307,15.375168 14.2125365,15.10176 14.6578023,14.657216 C15.1030681,14.212672 15.375783,13.76608 15.5805912,13.240064 C15.7783591,12.73152 15.9140446,12.149888 15.9521901,11.29824 C15.9909756,10.444608 16,10.172544 16,8 C16,5.827456 15.9909756,5.554752 15.9521901,4.70176 C15.9134045,3.850048 15.7783591,3.26816 15.5805912,2.759936 C15.375783,2.23392 15.1023641,1.788032 14.6578023,1.342784 C14.2132405,0.897536 13.7666307,0.624256 13.2412336,0.420032 C12.7320293,0.222272 12.150374,0.086592 11.299332,0.048448 C10.4463059,0.009664 10.1735909,0 8.00096004,0 C5.82832913,0 5.55542222,0.009024 4.70194808,0.048448" id="Shape"></path>
            </g>
        </g>
    </g>
</svg>