<svg viewBox="0 0 122 26" version="1.1" xmlns="http://www.w3.org/2000/svg" xmlns:xlink="http://www.w3.org/1999/xlink">
    <g id="Page-1" stroke="none" stroke-width="1" fill="none" fill-rule="evenodd">
        <g id="Group" transform="translate(-1.000000, -3.000000)">
            <path d="M44.056,14.904 C44.6440029,15.0440007 45.1083316,15.3333311 45.449,15.772 C45.7896684,16.2106689 45.96,16.7193304 45.96,17.298 C45.96,18.156671 45.6753362,18.8216643 45.106,19.293 C44.5366638,19.7643357 43.7200053,20 42.656,20 L37.756,20 L37.756,10.088 L42.544,10.088 C43.5426717,10.088 44.3243305,10.3073311 44.889,10.746 C45.4536695,11.1846689 45.736,11.8193292 45.736,12.65 C45.736,13.2380029 45.5820015,13.7303313 45.274,14.127 C44.9659985,14.5236686 44.5600025,14.7826661 44.056,14.904 Z M40.514,14.05 L41.9,14.05 C42.5906701,14.05 42.936,13.7606696 42.936,13.182 C42.936,12.5846637 42.5860035,12.286 41.886,12.286 L40.514,12.286 L40.514,14.05 Z M42.068,17.788 L40.514,17.788 L40.514,15.968 L42.068,15.968 C42.7866703,15.968 43.146,16.2759969 43.146,16.892 C43.146,17.4893363 42.7866703,17.788 42.068,17.788 Z M49.88,13.616 C50.1880015,13.149331 50.575331,12.7760014 51.042,12.496 C51.508669,12.2159986 52.0033307,12.076 52.526,12.076 L52.526,15.016 L51.728,15.016 C51.1119969,15.016 50.6500015,15.1349988 50.342,15.373 C50.0339985,15.6110012 49.88,16.0239971 49.88,16.612 L49.88,20 L47.122,20 L47.122,12.146 L49.88,12.146 L49.88,13.616 Z M56.348,12.048 C56.8986694,12.048 57.376998,12.1669988 57.783,12.405 C58.189002,12.6430012 58.489999,12.9719979 58.686,13.392 L58.686,12.146 L61.43,12.146 L61.43,20 L58.686,20 L58.686,18.754 C58.489999,19.1740021 58.189002,19.5029988 57.783,19.741 C57.376998,19.9790012 56.8986694,20.098 56.348,20.098 C55.7226635,20.098 55.1580025,19.9370016 54.654,19.615 C54.1499975,19.2929984 53.7533348,18.8263364 53.464,18.215 C53.1746652,17.6036636 53.03,16.8873374 53.03,16.066 C53.03,15.2446626 53.1746652,14.5306697 53.464,13.924 C53.7533348,13.3173303 54.1499975,12.8530016 54.654,12.531 C55.1580025,12.2089984 55.7226635,12.048 56.348,12.048 Z M57.258,14.456 C57.6686687,14.456 58.009332,14.6006652 58.28,14.89 C58.550668,15.1793348 58.686,15.5713309 58.686,16.066 C58.686,16.5700025 58.550668,16.9666652 58.28,17.256 C58.009332,17.5453348 57.6686687,17.69 57.258,17.69 C56.8286645,17.69 56.4810013,17.5476681 56.215,17.263 C55.9489987,16.9783319 55.816,16.5793359 55.816,16.066 C55.816,15.5619975 55.9489987,15.1676681 56.215,14.883 C56.4810013,14.5983319 56.8286645,14.456 57.258,14.456 Z M68.192,12.076 C69.0973379,12.076 69.8066641,12.376997 70.32,12.979 C70.8333359,13.581003 71.09,14.3999948 71.09,15.436 L71.09,20 L68.36,20 L68.36,15.786 C68.36,15.3286644 68.2410012,14.971668 68.003,14.715 C67.7649988,14.4583321 67.4453353,14.33 67.044,14.33 C66.6333313,14.33 66.3066679,14.4629987 66.064,14.729 C65.8213321,14.9950013 65.7,15.361331 65.7,15.828 L65.7,20 L62.942,20 L62.942,12.146 L65.7,12.146 L65.7,13.462 C65.9240011,13.0419979 66.2506645,12.7060013 66.68,12.454 C67.1093355,12.2019987 67.6133304,12.076 68.192,12.076 Z M75.472,12.048 C76.0226694,12.048 76.4986647,12.1669988 76.9,12.405 C77.3013353,12.6430012 77.599999,12.9719979 77.796,13.392 L77.796,9.64 L80.554,9.64 L80.554,20 L77.796,20 L77.796,18.754 C77.599999,19.1740021 77.3013353,19.5029988 76.9,19.741 C76.4986647,19.9790012 76.0226694,20.098 75.472,20.098 C74.8466635,20.098 74.2820025,19.9370016 73.778,19.615 C73.2739975,19.2929984 72.8773348,18.8263364 72.588,18.215 C72.2986652,17.6036636 72.154,16.8873374 72.154,16.066 C72.154,15.2446626 72.2986652,14.5306697 72.588,13.924 C72.8773348,13.3173303 73.2739975,12.8530016 73.778,12.531 C74.2820025,12.2089984 74.8466635,12.048 75.472,12.048 Z M76.382,14.456 C75.9526645,14.456 75.6050013,14.5983319 75.339,14.883 C75.0729987,15.1676681 74.94,15.5619975 74.94,16.066 C74.94,16.5793359 75.0729987,16.9783319 75.339,17.263 C75.6050013,17.5476681 75.9526645,17.69 76.382,17.69 C76.7926687,17.69 77.133332,17.5453348 77.404,17.256 C77.674668,16.9666652 77.81,16.5700025 77.81,16.066 C77.81,15.5713309 77.674668,15.1793348 77.404,14.89 C77.133332,14.6006652 76.7926687,14.456 76.382,14.456 Z" id="Combined-Shape" fill="#364F6B"></path>
            <path d="M87.414,10.088 L87.414,20 L84.656,20 L84.656,10.088 L87.414,10.088 Z M92.524,12.048 C93.5413384,12.048 94.3953299,12.3303305 95.086,12.895 C95.7766701,13.4596695 96.2106658,14.2413283 96.388,15.24 L93.476,15.24 C93.4106663,14.969332 93.2916675,14.7616674 93.119,14.617 C92.9463325,14.4723326 92.724668,14.4 92.454,14.4 C92.1179983,14.4 91.8450011,14.5423319 91.635,14.827 C91.424999,15.1116681 91.32,15.524664 91.32,16.066 C91.32,16.6166694 91.424999,17.0319986 91.635,17.312 C91.8450011,17.5920014 92.1179983,17.732 92.454,17.732 C92.724668,17.732 92.9463325,17.6596674 93.119,17.515 C93.2916675,17.3703326 93.4106663,17.162668 93.476,16.892 L96.388,16.892 C96.2106658,17.8906717 95.7766701,18.6746638 95.086,19.244 C94.3953299,19.8133362 93.5413384,20.098 92.524,20.098 C91.7399961,20.098 91.047003,19.9370016 90.445,19.615 C89.842997,19.2929984 89.3740017,18.8263364 89.038,18.215 C88.7019983,17.6036636 88.534,16.8873374 88.534,16.066 C88.534,15.2446626 88.7019983,14.5306697 89.038,13.924 C89.3740017,13.3173303 89.8453303,12.8530016 90.452,12.531 C91.0586697,12.2089984 91.7493295,12.048 92.524,12.048 Z M101.204,12.048 C101.988004,12.048 102.69033,12.2089984 103.311,12.531 C103.93167,12.8530016 104.419332,13.3196636 104.774,13.931 C105.128668,14.5423364 105.306,15.2539959 105.306,16.066 C105.306,16.8873374 105.128668,17.6013303 104.774,18.208 C104.419332,18.8146697 103.93167,19.2813317 103.311,19.608 C102.69033,19.9346683 101.988004,20.098 101.204,20.098 C100.419996,20.098 99.7153365,19.9346683 99.09,19.608 C98.4646635,19.2813317 97.9746684,18.8146697 97.62,18.208 C97.2653316,17.6013303 97.088,16.8873374 97.088,16.066 C97.088,15.2446626 97.2653316,14.5306697 97.62,13.924 C97.9746684,13.3173303 98.4646635,12.8530016 99.09,12.531 C99.7153365,12.2089984 100.419996,12.048 101.204,12.048 Z M101.204,14.428 C101.577335,14.428 101.889999,14.5679986 102.142,14.848 C102.394001,15.1280014 102.52,15.5339973 102.52,16.066 C102.52,16.5980027 102.394001,17.0063319 102.142,17.291 C101.889999,17.5756681 101.577335,17.718 101.204,17.718 C100.821331,17.718 100.504001,17.5780014 100.252,17.298 C99.9999987,17.0179986 99.874,16.607336 99.874,16.066 C99.874,15.5339973 99.9999987,15.1280014 100.252,14.848 C100.504001,14.5679986 100.821331,14.428 101.204,14.428 Z M111.662,12.076 C112.567338,12.076 113.276664,12.376997 113.79,12.979 C114.303336,13.581003 114.56,14.3999948 114.56,15.436 L114.56,20 L111.83,20 L111.83,15.786 C111.83,15.3286644 111.711001,14.971668 111.473,14.715 C111.234999,14.4583321 110.915335,14.33 110.514,14.33 C110.103331,14.33 109.776668,14.4629987 109.534,14.729 C109.291332,14.9950013 109.17,15.361331 109.17,15.828 L109.17,20 L106.412,20 L106.412,12.146 L109.17,12.146 L109.17,13.462 C109.394001,13.0419979 109.720665,12.7060013 110.15,12.454 C110.579335,12.2019987 111.08333,12.076 111.662,12.076 Z M119.012,12.048 C120.048005,12.048 120.873997,12.2999975 121.49,12.804 C122.106003,13.3080025 122.493333,13.9753292 122.652,14.806 L120.076,14.806 C120.010666,14.5259986 119.877668,14.3160007 119.677,14.176 C119.476332,14.0359993 119.231335,13.966 118.942,13.966 C118.736666,13.966 118.580334,14.0103329 118.473,14.099 C118.365666,14.1876671 118.312,14.3113325 118.312,14.47 C118.312,14.666001 118.426332,14.8129995 118.655,14.911 C118.883668,15.0090005 119.259331,15.1186661 119.782,15.24 C120.38867,15.3706673 120.890331,15.5106659 121.287,15.66 C121.683669,15.8093341 122.028999,16.0519983 122.323,16.388 C122.617001,16.7240017 122.764,17.1766638 122.764,17.746 C122.764,18.2033356 122.638001,18.6093316 122.386,18.964 C122.133999,19.3186684 121.767669,19.5963323 121.287,19.797 C120.806331,19.9976677 120.239337,20.098 119.586,20.098 C118.484661,20.098 117.607337,19.8600024 116.954,19.384 C116.300663,18.9079976 115.904001,18.2266711 115.764,17.34 L118.41,17.34 C118.447334,17.6293348 118.570999,17.8439993 118.781,17.984 C118.991001,18.1240007 119.254665,18.194 119.572,18.194 C119.786668,18.194 119.949999,18.1473338 120.062,18.054 C120.174001,17.9606662 120.23,17.8393341 120.23,17.69 C120.23,17.4659989 120.111001,17.3026672 119.873,17.2 C119.634999,17.0973328 119.254669,16.9946672 118.732,16.892 C118.134664,16.7706661 117.644669,16.6376674 117.262,16.493 C116.879331,16.3483326 116.545668,16.1150016 116.261,15.793 C115.976332,15.4709984 115.834,15.0253362 115.834,14.456 C115.834,13.7466631 116.109331,13.1680022 116.66,12.72 C117.210669,12.2719978 117.994662,12.048 119.012,12.048 Z" id="Combined-Shape" fill="#1BB5EC"></path>
            <g id="heart-rate">
                <rect id="Rectangle" x="0" y="0" width="32" height="32"></rect>
                <path d="M21,16 L18,21 L14,11 L11,16 L1.37,16 C2.54,21 6.73,26.44 15.73,29 C15.9060383,29.0534082 16.0939617,29.0534082 16.27,29 C25.27,26.48 29.46,21.08 30.63,16 L21,16 Z" id="Path" fill="#1BB5EC"></path>
                <path d="M23,3 C20.2890275,3.13737604 17.75553,4.38964765 16,6.46 C14.24447,4.38964765 11.7109725,3.13737604 9,3 C4.65,3 1,7.28 1,13 C1,18.72 4.91,25.93 15.73,29 C15.9065942,29.0495196 16.0934058,29.0495196 16.27,29 C27.09,25.93 31,18.73 31,13 C31,7.27 27.33,3 23,3 Z M9,5 C11.14,5 13.41,6.32 15.21,8.62 C15.3994263,8.86407939 15.6910387,9.00689316 16,9.00689316 C16.3089613,9.00689316 16.6005737,8.86407939 16.79,8.62 C18.59,6.32 20.86,5 23,5 C26.32,5 29,8.53 29,13 C28.9943743,13.670894 28.9308047,14.340048 28.81,15 L21,15 C20.6469327,15.0000616 20.3200643,15.1863005 20.14,15.49 L18.14,18.76 L14.89,10.63 C14.750058,10.275037 14.4203202,10.0306432 14.04,10 C13.6587499,9.97016186 13.2938663,10.1603672 13.1,10.49 L10.43,15 L3.19,15 C3.06919533,14.340048 3.00562569,13.670894 3,13 C3,8.51 5.69,5 9,5 Z M16,27 C8.92,24.94 5.2,21 3.75,17 L11,17 C11.3530673,16.9999384 11.6799357,16.8136995 11.86,16.51 L13.86,13.24 L17.11,21.37 C17.249942,21.724963 17.5796798,21.9693568 17.96,22 L18,22 C18.3530673,21.9999384 18.6799357,21.8136995 18.86,21.51 L21.57,17 L28.25,17 C26.8,20.93 23.08,24.9 16,27 Z" id="Shape" fill="#364F6B" fill-rule="nonzero"></path>
            </g>
        </g>
    </g>
</svg>