
<svg width="122px" height="26px" viewBox="0 0 122 26" version="1.1" xmlns="http://www.w3.org/2000/svg" xmlns:xlink="http://www.w3.org/1999/xlink">
    <g id="Page-1" stroke="none" stroke-width="1" fill="none" fill-rule="evenodd">
        <text id="Brand-Icons" font-family="Poppins-ExtraBold, Poppins" font-size="14" font-weight="600">
            <tspan x="36" y="17" fill="#364F6B">Brand</tspan>
            <tspan x="80.31" y="17" fill="#393939"> </tspan>
            <tspan x="82.9" y="17" fill="#1BB5EC">Icons</tspan>
        </text>
        <g id="heart-rate" transform="translate(-1.000000, -3.000000)">
            <rect id="Rectangle" x="0" y="0" width="32" height="32"></rect>
            <path d="M21,16 L18,21 L14,11 L11,16 L1.37,16 C2.54,21 6.73,26.44 15.73,29 C15.9060383,29.0534082 16.0939617,29.0534082 16.27,29 C25.27,26.48 29.46,21.08 30.63,16 L21,16 Z" id="Path" fill="#1BB5EC"></path>
            <path d="M23,3 C20.2890275,3.13737604 17.75553,4.38964765 16,6.46 C14.24447,4.38964765 11.7109725,3.13737604 9,3 C4.65,3 1,7.28 1,13 C1,18.72 4.91,25.93 15.73,29 C15.9065942,29.0495196 16.0934058,29.0495196 16.27,29 C27.09,25.93 31,18.73 31,13 C31,7.27 27.33,3 23,3 Z M9,5 C11.14,5 13.41,6.32 15.21,8.62 C15.3994263,8.86407939 15.6910387,9.00689316 16,9.00689316 C16.3089613,9.00689316 16.6005737,8.86407939 16.79,8.62 C18.59,6.32 20.86,5 23,5 C26.32,5 29,8.53 29,13 C28.9943743,13.670894 28.9308047,14.340048 28.81,15 L21,15 C20.6469327,15.0000616 20.3200643,15.1863005 20.14,15.49 L18.14,18.76 L14.89,10.63 C14.750058,10.275037 14.4203202,10.0306432 14.04,10 C13.6587499,9.97016186 13.2938663,10.1603672 13.1,10.49 L10.43,15 L3.19,15 C3.06919533,14.340048 3.00562569,13.670894 3,13 C3,8.51 5.69,5 9,5 Z M16,27 C8.92,24.94 5.2,21 3.75,17 L11,17 C11.3530673,16.9999384 11.6799357,16.8136995 11.86,16.51 L13.86,13.24 L17.11,21.37 C17.249942,21.724963 17.5796798,21.9693568 17.96,22 L18,22 C18.3530673,21.9999384 18.6799357,21.8136995 18.86,21.51 L21.57,17 L28.25,17 C26.8,20.93 23.08,24.9 16,27 Z" id="Shape" fill="#364F6B" fill-rule="nonzero"></path>
        </g>
    </g>
</svg>